HIERARCHY
ROOT hip
{
  OFFSET 0 0 0
  CHANNELS 6 Xposition Yposition Zposition Zrotation Yrotation Xrotation
  JOINT abdomen
  {
    OFFSET 0 20.6881 -0.73152
    CHANNELS 3 Zrotation Xrotation Yrotation
    JOINT chest
    {
      OFFSET 0 11.7043 -0.48768
      CHANNELS 3 Zrotation Xrotation Yrotation
      JOINT neck
      {
        OFFSET 0 22.1894 -2.19456
        CHANNELS 3 Zrotation Xrotation Yrotation
        JOINT head
        {
          OFFSET -0.24384 7.07133 1.2192
          CHANNELS 3 Zrotation Xrotation Yrotation
          JOINT leftEye
          {
            OFFSET 4.14528 8.04674 8.04672
            CHANNELS 3 Zrotation Xrotation Yrotation
            End Site
            {
              OFFSET 1 0 0
            }
          }
          JOINT rightEye
          {
            OFFSET -3.6576 8.04674 8.04672
            CHANNELS 3 Zrotation Xrotation Yrotation
            End Site
            {
              OFFSET 1 0 0
            }
          }
        }
      }
      JOINT rCollar
      {
        OFFSET -2.68224 19.2634 -4.8768
        CHANNELS 3 Zrotation Xrotation Yrotation
        JOINT rShldr
        {
          OFFSET -8.77824 -1.95073 1.46304
          CHANNELS 3 Zrotation Xrotation Yrotation
          JOINT rForeArm
          {
            OFFSET -28.1742 -1.7115 0.48768
            CHANNELS 3 Zrotation Xrotation Yrotation
            JOINT rHand
            {
              OFFSET -22.5879 0.773209 7.07136
              CHANNELS 3 Zrotation Xrotation Yrotation
              JOINT rThumb1
              {
                OFFSET -1.2192 -0.487915 3.41376
                CHANNELS 3 Zrotation Xrotation Yrotation
                JOINT rThumb2
                {
                  OFFSET -3.37035 -0.52449 3.41376
                  CHANNELS 3 Zrotation Xrotation Yrotation
                  End Site
                  {
                    OFFSET -1.78271 -1.18214 1.43049
                  }
                }
              }
              JOINT rIndex1
              {
                OFFSET -7.75947 0.938293 5.60832
                CHANNELS 3 Zrotation Xrotation Yrotation
                JOINT rIndex2
                {
                  OFFSET -2.54057 -0.884171 1.56538
                  CHANNELS 3 Zrotation Xrotation Yrotation
                  End Site
                  {
                    OFFSET -1.62519 -0.234802 1.16502
                  }
                }
              }
              JOINT rMid1
              {
                OFFSET -8.24714 1.18213 3.41376
                CHANNELS 3 Zrotation Xrotation Yrotation
                JOINT rMid2
                {
                  OFFSET -3.10165 -0.590103 1.0647
                  CHANNELS 3 Zrotation Xrotation Yrotation
                  End Site
                  {
                    OFFSET -2.48547 -0.328903 0.83742
                  }
                }
              }
              JOINT rRing1
              {
                OFFSET -8.82822 0.546677 1.51678
                CHANNELS 3 Zrotation Xrotation Yrotation
                JOINT rRing2
                {
                  OFFSET -2.60934 -0.819778 -0.0198488
                  CHANNELS 3 Zrotation Xrotation Yrotation
                  End Site
                  {
                    OFFSET -2.33842 -0.294052 0.168128
                  }
                }
              }
              JOINT rPinky1
              {
                OFFSET -8.27202 -0.0477905 -0.4584
                CHANNELS 3 Zrotation Xrotation Yrotation
                JOINT rPinky2
                {
                  OFFSET -1.82734 -0.647385 -0.700984
                  CHANNELS 3 Zrotation Xrotation Yrotation
                  End Site
                  {
                    OFFSET -1.69225 -0.51767 -0.607171
                  }
                }
              }
            }
          }
        }
      }
      JOINT lCollar
      {
        OFFSET 2.68224 19.2634 -4.8768
        CHANNELS 3 Zrotation Xrotation Yrotation
        JOINT lShldr
        {
          OFFSET 8.77824 -1.95073 1.46304
          CHANNELS 3 Zrotation Xrotation Yrotation
          JOINT lForeArm
          {
            OFFSET 28.1742 -1.7115 0.48768
            CHANNELS 3 Zrotation Xrotation Yrotation
            JOINT lHand
            {
              OFFSET 22.5879 0.773209 7.07136
              CHANNELS 3 Zrotation Xrotation Yrotation
              JOINT lThumb1
              {
                OFFSET 1.2192 -0.487915 3.41376
                CHANNELS 3 Zrotation Xrotation Yrotation
                JOINT lThumb2
                {
                  OFFSET 3.37035 -0.52449 3.41376
                  CHANNELS 3 Zrotation Xrotation Yrotation
                  End Site
                  {
                    OFFSET 1.78271 -1.18214 1.43049
                  }
                }
              }
              JOINT lIndex1
              {
                OFFSET 7.75947 0.938293 5.60832
                CHANNELS 3 Zrotation Xrotation Yrotation
                JOINT lIndex2
                {
                  OFFSET 2.54057 -0.884171 1.56538
                  CHANNELS 3 Zrotation Xrotation Yrotation
                  End Site
                  {
                    OFFSET 1.62519 -0.234802 1.16502
                  }
                }
              }
              JOINT lMid1
              {
                OFFSET 8.24714 1.18213 3.41376
                CHANNELS 3 Zrotation Xrotation Yrotation
                JOINT lMid2
                {
                  OFFSET 3.10165 -0.590103 1.0647
                  CHANNELS 3 Zrotation Xrotation Yrotation
                  End Site
                  {
                    OFFSET 2.48547 -0.328903 0.83742
                  }
                }
              }
              JOINT lRing1
              {
                OFFSET 8.82822 0.546677 1.51678
                CHANNELS 3 Zrotation Xrotation Yrotation
                JOINT lRing2
                {
                  OFFSET 2.60934 -0.819778 -0.0198488
                  CHANNELS 3 Zrotation Xrotation Yrotation
                  End Site
                  {
                    OFFSET 2.33842 -0.294052 0.168128
                  }
                }
              }
              JOINT lPinky1
              {
                OFFSET 8.27202 -0.0477905 -0.4584
                CHANNELS 3 Zrotation Xrotation Yrotation
                JOINT lPinky2
                {
                  OFFSET 1.82734 -0.647385 -0.700984
                  CHANNELS 3 Zrotation Xrotation Yrotation
                  End Site
                  {
                    OFFSET 1.69225 -0.51767 -0.607171
                  }
                }
              }
            }
          }
        }
      }
    }
  }
  JOINT rButtock
  {
    OFFSET -8.77824 4.35084 1.2192
    CHANNELS 3 Zrotation Xrotation Yrotation
    JOINT rThigh
    {
      OFFSET 0 -1.70687 -2.19456
      CHANNELS 3 Zrotation Xrotation Yrotation
      JOINT rShin
      {
        OFFSET 0 -36.8199 0.73152
        CHANNELS 3 Zrotation Xrotation Yrotation
        JOINT rFoot
        {
          OFFSET 0.73152 -45.1104 -5.12064
          CHANNELS 3 Zrotation Xrotation Yrotation
          End Site
          {
            OFFSET -1.1221 -3.69964 12.103
          }
        }
      }
    }
  }
  JOINT lButtock
  {
    OFFSET 8.77824 4.35084 1.2192
    CHANNELS 3 Zrotation Xrotation Yrotation
    JOINT lThigh
    {
      OFFSET 0 -1.70687 -2.19456
      CHANNELS 3 Zrotation Xrotation Yrotation
      JOINT lShin
      {
        OFFSET 0 -36.8199 0.73152
        CHANNELS 3 Zrotation Xrotation Yrotation
        JOINT lFoot
        {
          OFFSET -0.73152 -45.1104 -5.12064
          CHANNELS 3 Zrotation Xrotation Yrotation
          End Site
          {
            OFFSET 1.1221 -3.69964 12.103
          }
        }
      }
    }
  }
}
MOTION
Frames: 4
Frame Time: 0.00833333
-0.47337300000000004 82.84720000000002 4.21489 -155.785 83.78330000000001 -141.432 -6.83838 -6.28526 4.21446 -0.316267 -0.954863 1.22614 -3.70794 10.900200000000002 4.12556 41.6601 0.796633 12.9424 -0.0 0.0 0.0 -0.0 0.0 0.0 -8.74256e-14 6.31548e-13 1.90883e-13 25.219200000000004 38.7635 60.328500000000005 21.7776 -51.8351 -109.701 -0.00541763 -2.10114 -0.29543 1.49002e-09 1.86628e-09 -7.97349e-10 2.5787300000000003e-09 3.21384e-09 -1.3859600000000002e-09 1.49001e-09 1.86628e-09 -7.97352e-10 7.73091 5.474880000000001 0.4173140000000001 1.49001e-09 1.86628e-09 -7.97343e-10 2.9055400000000002 0.9651830000000001 0.102902 1.49002e-09 1.86628e-09 -7.973440000000001e-10 10.2786 0.731801 0.0259123 1.49e-09 1.86628e-09 -7.97333e-10 2.22167 -0.7334870000000001 -0.20892 -8.74608e-14 6.315290000000001e-13 1.90784e-13 -10.2474 47.9406 -76.6516 23.0512 -50.5317 -106.16 0.0719673 -7.63155 1.079 1.26602e-09 -3.7196300000000003e-09 2.84116e-09 2.16209e-09 -6.461e-09 4.93607e-09 1.26602e-09 -3.7196300000000003e-09 2.84117e-09 -7.73091 5.474880000000001 -0.4173140000000001 1.26602e-09 -3.71964e-09 2.84116e-09 -2.9055400000000002 0.9651830000000001 -0.102902 1.26601e-09 -3.7196300000000003e-09 2.84116e-09 -10.2786 0.731801 -0.0259123 1.2660300000000002e-09 -3.7196300000000003e-09 2.84115e-09 -2.22167 -0.7334870000000001 0.20892 -2.03217e-16 0.0 -3.88251e-19 -3.34308 -12.9097 12.942700000000002 0.00514669 2.97848 0.226969 -3.29519 -1.3083 -23.8403 2.03217e-16 0.0 3.88251e-19 19.3641 -8.04522 0.196496 -0.0213855 9.37917 -0.291788 -0.0533675 -1.34032 0.0272054 
-0.8548721464285713 82.81772015037593 4.18010129887218 -158.73299642857143 83.44064817669172 -143.96569511278193 -6.454858137218045 -5.544174802631578 2.054527793233083 -1.3014475845864661 -0.21051229511278194 0.5884217819548873 -5.771078804511278 17.257315582706767 5.151116851503759 30.220737030075185 -11.34790137218045 15.103218157894737 -0.0 0.0 0.0 -0.0 0.0 0.0 -9.105205084586465e-14 7.057985712406015e-13 1.9973809154135337e-13 18.02915714285714 44.94515310150376 66.66920915413533 20.654860977443608 -52.82590285714286 -112.59984755639098 -0.07595406780075187 7.857681402255639 1.1113348815789474 3.7024458590225564e-10 5.557155819548873e-10 -5.334291456766916e-10 6.376568150375939e-10 9.473818257518797e-10 -9.312057785714286e-10 3.702475859022556e-10 5.557175819548872e-10 -5.334334451127819e-10 7.73091 5.47488 0.417314 3.702436857142857e-10 5.557055819548872e-10 -5.334331456766917e-10 2.9055399999999993 0.965183 0.102902 3.702466857142857e-10 5.55715282518797e-10 -5.33428345300752e-10 10.2786 0.731801 0.0259123 3.702384860902255e-10 5.557155819548873e-10 -5.334171456766918e-10 2.22167 -0.733487 -0.20892 -9.10901884962406e-14 7.058172718045113e-13 1.994914889097744e-13 -12.568820526315788 51.11542584586466 -73.63415210526315 20.67695206766917 -52.807287462406016 -112.54397011278195 0.20765570526315788 -12.871157894736841 1.840311744360902 1.4807727612781954e-09 -1.3738251635338346e-09 1.0223130486842103e-09 2.5432348308270676e-09 -2.3878979680451127e-09 1.790561122180451e-09 1.4807717631578946e-09 -1.3738241654135338e-09 1.0223234479323306e-09 -7.73091 5.47488 -0.417314 1.4807817631578947e-09 -1.3738151635338343e-09 1.0223128490601502e-09 -2.9055399999999993 0.965183 -0.102902 1.4807717631578946e-09 -1.3738151635338343e-09 1.0223131484962404e-09 -10.2786 0.731801 -0.0259123 1.4807817631578947e-09 -1.3738151635338343e-09 1.02231264943609e-09 -2.22167 -0.733487 0.20892 -2.0321699999999997e-16 0.0 -3.8825099999999993e-19 -3.4067535319548865 -13.872655582706766 12.457799229323308 0.01072588234962406 3.7568316560150374 0.2717785661654135 -3.8886731635338343 -2.7127467274436086 -23.748177781954887 2.0321699999999997e-16 0.0 3.8825099999999993e-19 19.355960075187973 -8.063496310150375 0.19790627687969922 -0.023460398195488723 9.432690680451127 -0.3106741137218045 -0.056549712462406004 -1.3789662913533836 0.02813946672932331 
-1.193667142857143 82.8183689849624 4.212964887218045 -160.3143439849624 83.43408796992482 -146.03631015037593 -5.952749962406014 -2.9188121052631577 -0.17757024812030076 -2.605009022556391 -0.16248943120300752 -0.09714533383458647 -6.244011748120301 20.794305263157895 4.261272537593985 14.243881578947368 -13.48221372180451 10.420743515037593 -0.0 0.0 0.0 -0.0 0.0 0.0 9.144837593984963e-14 1.9332734398496239e-13 -2.887290131578947e-14 10.319299436090226 46.73169022556391 75.2209682330827 20.292684210526318 -53.11940864661654 -113.49858834586468 -0.7109678796992481 23.19284154135338 3.4529313909774437 7.306696240601504e-10 -3.720894736842124e-12 6.174916146616541e-11 1.2700139285714284e-09 -3.6410289473684266e-11 9.360955827067669e-11 7.306747236842104e-10 -3.7226954887218024e-12 6.174264041353384e-11 7.73091 5.47488 0.41731399999999996 7.306696240601504e-10 -3.7226954887218024e-12 6.174628984962406e-11 2.90554 0.9651829999999999 0.102902 7.306787236842105e-10 -3.7217951127819375e-12 6.174528984962406e-11 10.2786 0.7318010000000001 0.0259123 7.306665244360902e-10 -3.719898496240636e-12 6.174705808270677e-11 2.22167 -0.733487 -0.20892 9.125893609022557e-14 1.9332514849624062e-13 -2.910401184210527e-14 -14.581928571428573 50.53073609022556 -70.72436015037594 18.883952067669174 -54.16013834586466 -116.85929511278195 0.24720821240601504 -14.011308082706767 2.009853759398496 -2.1940129511278198e-11 6.64612719924812e-10 -8.570078778195489e-10 -2.5411114661654162e-11 1.1550204041353382e-09 -1.4872962593984963e-09 -2.194430958646616e-11 6.64622719924812e-10 -8.570051766917294e-10 -7.73091 5.47488 -0.41731399999999996 -2.1943390037593998e-11 6.646209191729323e-10 -8.570215751879699e-10 -2.90554 0.9651829999999999 -0.102902 -2.19457597744361e-11 6.64613620300752e-10 -8.570078778195489e-10 -10.2786 0.7318010000000001 -0.0259123 -2.1934949436090242e-11 6.64612719924812e-10 -8.570187781954887e-10 -2.22167 -0.733487 0.20892 -2.03217e-16 0.0 -3.88251e-19 -3.535591879699248 -13.904484962406015 12.38744417293233 0.013170966729323308 4.3016473120300756 0.2649841315789474 -3.8867302067669174 -2.7224730075187975 -23.751028759398494 2.03217e-16 0.0 3.88251e-19 19.35229962406015 -8.100058007518795 0.1988157462406015 -0.02454562857142857 9.482259060150376 -0.32103529699248123 -0.06332438251879699 -1.394617030075188 0.029073919360902253 
-1.3766227913533835 82.81675140977443 4.2793327518797 -160.36793439849623 83.6771985150376 -146.64681240601504 -6.303453084586467 -1.9166951616541354 -1.2276038364661654 -2.9850045714285716 -0.1803671244360902 -0.4078838507518797 -4.129225046992481 18.54584219924812 1.5535386109022555 -0.6230690338345866 -1.073429890037594 4.790111082706766 -0.0 0.0 0.0 -0.0 0.0 0.0 -2.1204950958646617e-14 -1.955538842105263e-12 -2.937133612781955e-13 10.358558609022555 45.90747652255639 77.51004522556391 21.13689943609023 -52.41650056390978 -111.37770169172933 -0.7492097199248121 23.80105003759399 3.553986757518797 -7.614853343984964e-10 -2.4757292274436092e-09 -6.039517406015038e-10 -1.3192295902255637e-09 -4.247020458646616e-09 -1.0220506578947369e-09 -7.614842349624062e-10 -2.4757092274436095e-09 -6.039520389097745e-10 7.730910000000001 5.47488 0.417314 -7.614873343984962e-10 -2.4757102218045115e-09 -6.039330389097745e-10 2.9055400000000002 0.965183 0.102902 -7.614833343984964e-10 -2.4757292274436092e-09 -6.039389394736842e-10 10.278600000000003 0.731801 0.025912300000000003 -7.614913343984963e-10 -2.4757282330827068e-09 -6.039200389097745e-10 2.2216700000000005 -0.733487 -0.20892 -2.1326136917293236e-14 -1.9555398364661655e-12 -2.9381027312030077e-13 -18.850710789473688 48.93059109022556 -66.38618956766918 19.018956484962406 -54.06759548872181 -116.5456847744361 0.40504420375939854 -17.79974377819549 2.5861762387218046 -3.0004265996240604e-09 3.4837798233082706e-09 -2.8736472218045114e-09 -5.13564980263158e-09 6.05298822556391e-09 -5.030423488721805e-09 -3.0004356052631578e-09 3.483780817669173e-09 -2.8736372218045115e-09 -7.730910000000001 5.47488 -0.417314 -3.0004356052631578e-09 3.483789823308271e-09 -2.8736662274436095e-09 -2.9055400000000002 0.965183 -0.102902 -3.0004356052631578e-09 3.4837708176691727e-09 -2.8736472218045114e-09 -10.278600000000003 0.731801 -0.025912300000000003 -3.000425605263158e-09 3.483780817669173e-09 -2.8736572218045113e-09 -2.2216700000000005 -0.733487 0.20892 -2.0321700000000002e-16 0.0 -3.88251e-19 -3.5399205112781957 -13.784292669172933 12.612560789473685 0.002618511033834587 4.767009956766918 0.26297091221804514 -3.8844615263157896 -2.730214866541354 -23.755061917293236 2.0321700000000002e-16 0.0 3.88251e-19 19.343800563909777 -8.136935473684211 0.20009900357142857 -0.024583135469924813 9.532401962406015 -0.3224850543233083 -0.06862093018796993 -1.4083435056390978 0.029826444680451127 
